Coordinates
version=1
nRows=14
nColumns=24
inDegrees=yes

Units are S.I. units (second, meters, Newtons, ...)
Angles are in degrees.

endheader
time	pelvis_tilt	pelvis_list	pelvis_rotation	pelvis_tx	pelvis_ty	pelvis_tz	hip_flexion_r	hip_adduction_r	hip_rotation_r	knee_angle_r	ankle_angle_r	subtalar_angle_r	mtp_angle_r	hip_flexion_l	hip_adduction_l	hip_rotation_l	knee_angle_l	ankle_angle_l	subtalar_angle_l	mtp_angle_l	lumbar_extension	lumbar_bending	lumbar_rotation
      4.64500000	     10.53001263	      8.90115749	      4.65707787	      0.76785523	      0.75654869	     -0.29845424	     12.39477631	    -11.61229906	     -5.39168494	    -58.47607891	     22.63096905	     -8.54147023	      0.00000000	    -11.01414910	     14.80807446	     12.58557943	    -12.15873434	     24.84704360	      6.03556416	      0.00000000	    -29.41028221	     -5.18129017	     -0.18729886
      4.65000000	     10.48112615	      9.03037570	      5.03455738	      0.77499335	      0.75626204	     -0.29894908	     13.25788291	    -11.77722630	     -5.33717578	    -57.49419845	     23.07387352	     -8.24982073	      0.00000000	    -11.85448584	     14.75905809	     12.89279732	    -11.74189741	     25.11297790	      6.38925689	      0.00000000	    -29.53959433	     -5.14080719	     -0.91289718
      4.65500000	     10.45382512	      9.17310882	      5.44079601	      0.78211494	      0.75592291	     -0.29945122	     14.04874604	    -11.96584199	     -5.30766514	    -56.41101757	     23.46104811	     -7.94047112	      0.00000000	    -12.70730102	     14.70522575	     13.19503519	    -11.35703340	     25.39730750	      6.77463858	      0.00000000	    -29.70714452	     -5.10403960	     -1.67111582
      4.66000000	     10.42904608	      9.34327356	      5.85618164	      0.78924057	      0.75550582	     -0.29995306	     14.79557427	    -12.19483691	     -5.29408911	    -55.23779966	     23.81409439	     -7.72591258	      0.00000000	    -13.55214731	     14.66715942	     13.44256473	    -11.00473794	     25.67558830	      7.17223135	      0.00000000	    -29.88596887	     -5.08886661	     -2.46502360
      4.66500000	     10.43274835	      9.50958823	      6.28422278	      0.79636174	      0.75505568	     -0.30045666	     15.45880560	    -12.42318676	     -5.29050043	    -53.95966447	     24.10127412	     -7.46526006	      0.00000000	    -14.41814183	     14.60842595	     13.69921635	    -10.67898453	     25.97676176	      7.60534822	      0.00000000	    -30.10505585	     -5.05832294	     -3.25537098
      4.67000000	     10.43189266	      9.71557891	      6.71881119	      0.80348565	      0.75452966	     -0.30094953	     16.08314556	    -12.70371174	     -5.30510620	    -52.59826051	     24.35593635	     -7.30370613	      0.00000000	    -15.27122293	     14.57966811	     13.89241675	    -10.38380982	     26.26030027	      8.03224019	      0.00000000	    -30.33018661	     -5.06795884	     -4.07883830
      4.67500000	     10.45936544	      9.91063281	      7.16700638	      0.81060548	      0.75398487	     -0.30144212	     16.61732854	    -12.97343411	     -5.33431018	    -51.13228438	     24.55936852	     -7.08673497	      0.00000000	    -16.14431736	     14.52052805	     14.08997778	    -10.11547379	     26.56328917	      8.49468857	      0.00000000	    -30.59389562	     -5.05224211	     -4.88933710
      4.68000000	     10.50876343	     10.11117693	      7.60001817	      0.81774281	      0.75340779	     -0.30192322	     17.07633938	    -13.25243595	     -5.38094753	    -49.57001877	     24.71788877	     -6.86422539	      0.00000000	    -17.02946838	     14.45875949	     14.24958488	     -9.87631127	     26.86571389	      8.96298944	      0.00000000	    -30.88326779	     -5.03982727	     -5.68565045
      4.68500000	     10.54725545	     10.32795574	      8.03101210	      0.82489312	      0.75277250	     -0.30237639	     17.49785812	    -13.54237621	     -5.41796754	    -47.92965421	     24.84850986	     -6.65970772	      0.00000000	    -17.90217056	     14.40293328	     14.37670116	     -9.64331640	     27.14795056	      9.42123709	      0.00000000	    -31.16505524	     -5.05037602	     -6.46913029
      4.69000000	     10.61283944	     10.53385579	      8.45967620	      0.83206275	      0.75213251	     -0.30283022	     17.82351393	    -13.82563966	     -5.50093880	    -46.18852345	     24.94116958	     -6.37449649	      0.00000000	    -18.78431505	     14.32394910	     14.47993071	     -9.45493112	     27.44237210	      9.89894205	      0.00000000	    -31.47497505	     -5.03876469	     -7.22366046
      4.69500000	     10.68943256	     10.73462574	      8.87909849	      0.83926885	      0.75147041	     -0.30324781	     18.07605172	    -14.09243416	     -5.59238904	    -44.36535561	     25.00655198	     -6.01651063	      0.00000000	    -19.66989312	     14.22713013	     14.55213939	     -9.28476942	     27.73030626	     10.38002584	      0.00000000	    -31.79500935	     -5.02724270	     -7.93746649
      4.70000000	     10.76691579	     10.92932851	      9.28380520	      0.84651590	      0.75078035	     -0.30365065	     18.26867908	    -14.34818761	     -5.70752559	    -42.46864984	     25.04948438	     -5.57513740	      0.00000000	    -20.54312592	     14.11900511	     14.60080540	     -9.14149567	     28.00740695	     10.86242049	      0.00000000	    -32.10663774	     -5.01182899	     -8.61520759
      4.70500000	     10.84638770	     11.11053586	      9.67428370	      0.85381566	      0.75006842	     -0.30402663	     18.39732342	    -14.58116492	     -5.85024956	    -40.50587138	     25.07218575	     -5.01436318	      0.00000000	    -21.40187230	     13.99110982	     14.62633253	     -9.02995119	     28.27815926	     11.34582451	      0.00000000	    -32.40968705	     -4.98926626	     -9.24306223
      4.71000000	     10.92394567	     11.27940730	     10.05758776	      0.86117428	      0.74933849	     -0.30438932	     18.46338151	    -14.79440633	     -6.02958257	    -38.48941882	     25.07633732	     -4.31928062	      0.00000000	    -22.23811690	     13.84428723	     14.63097187	     -8.95923796	     28.54802581	     11.82966176	      0.00000000	    -32.69656376	     -4.95709479	     -9.82746993
